<?xml version="1.0" encoding="utf-8"?>
<!-- Generator: Adobe Illustrator 15.0.2, SVG Export Plug-In . SVG Version: 6.00 Build 0)  -->
<!DOCTYPE svg PUBLIC "-//W3C//DTD SVG 1.1//EN" "http://www.w3.org/Graphics/SVG/1.1/DTD/svg11.dtd">
<svg version="1.1" id="Layer_1" xmlns="http://www.w3.org/2000/svg" xmlns:xlink="http://www.w3.org/1999/xlink" x="0px" y="0px"
	 width="220.982px" height="185.661px" viewBox="0 0 220.982 185.661" enable-background="new 0 0 220.982 185.661"
	 xml:space="preserve">
<g>
	<path fill="#FFFFFF" stroke="#FFFFFF" stroke-miterlimit="10" d="M15.551,158.629c-0.91,0.979-4.2,2.45-6.09,2.45
		c-7.701,0-8.961-8.261-8.961-12.391c0-3.36,1.19-11.131,7.351-11.131c2.59,0,4.061,1.75,5.391,3.36c0.21-0.14,0.07-0.14,0.07-0.49
		c0-0.7-1.33-6.371-1.75-7.421v-0.49c0.21,0,0.28-0.14,0.7-0.14c1.26,0,1.96,7.281,4.621,17.362c0,0.14-0.771,0.7-1.05,0.7
		c-0.35,0-0.42-0.21-0.7-0.21c-0.07-1.33-2.45-11.972-7.561-11.972c-2.03,0-4.831,4.271-4.971,5.461c-0.07,0.7-0.63,1.05-0.63,4.76
		c0,3.851,1.05,11.411,7.841,11.411c6.021,0,10.221-10.5,12.46-13.931c0.14,0.14,0.28,0.14,0.28,0.56
		C22.552,150.088,16.952,157.089,15.551,158.629z"/>
	<path fill="#FFFFFF" stroke="#FFFFFF" stroke-miterlimit="10" d="M46.701,157.299c-1.61,0-3.57-1.89-4.06-1.89
		c-0.21,0-4.761,5.6-9.451,5.6c-5.741,0-7.631-3.99-7.631-8.33c0-3.92,2.03-12.251,8.401-12.251c0.91,0,0.91,0.21,2.03,0.63
		c0.14-0.14,0.07-0.21,0.07-0.35l-1.12-5.321c0,0,0.07-0.14-0.28-0.14c-2.38,0-8.961,9.661-9.171,9.661c-0.35,0-0.49-0.21-0.77-0.35
		c0.84-1.75,1.89-3.36,3.15-4.9c0.14-0.21,5.741-6.021,7.421-6.021c0.28,0,0.77,0.28,0.91,0.63c1.12,4.551,2.24,14.632,6.651,19.182
		c1.05-0.7,2.52-3.01,3.99-4.271v0.56c0.07,0.84-2.94,4.2-3.22,4.55c0.77,1.26,2.73,2.24,4.13,2.521
		C47.611,156.949,47.122,157.299,46.701,157.299z M37.95,146.868c-0.63-1.4-0.77-5.531-3.92-5.531c-5.74,0-7.141,9.171-7.141,11.341
		c0,3.71,1.19,7.28,6.441,7.28c2.59,0,7-3.36,8.541-5.53C39.84,151.909,38.931,149.248,37.95,146.868z"/>
	<path fill="#FFFFFF" stroke="#FFFFFF" stroke-miterlimit="10" d="M49.709,161.569l5.46,22.402v0.98l-0.7,0.14
		c-1.89-4.41-3.081-9.311-4.271-14.071c-0.7-2.66-1.33-6.021-2.1-9.101c-0.91-0.14-1.89-0.07-2.66-0.7c0.28,0,0.91-0.21,2.38-0.07
		c0.14-0.14,0.14-0.35,0.14-0.42l-4.9-21.772c0.28,0,0.63-0.14,0.98-0.14c0.77,0,0.77,1.26,1.12,1.89
		c0.35-1.75,4.13-7.421,7.071-7.421c7.211,0,9.311,5.951,9.311,10.991C61.541,152.818,55.94,157.999,49.709,161.569z M53.35,134.337
		c-4.48,0-7.211,6.721-7.491,9.801l3.71,16.241c7.42-4.27,10.501-10.221,10.501-16.101C60.07,140.987,58.95,134.337,53.35,134.337z"
		/>
	<path fill="#FFFFFF" stroke="#FFFFFF" stroke-miterlimit="10" d="M68.679,143.298c0.56,2.38,1.4,5.04,2.17,7.63
		c0.21,0.63,1.82,9.101,5.11,9.101c1.891,0,3.15-4.06,3.851-4.69v0.49c0,0.35-0.35,0.56-0.42,0.91c-0.07,1.61-2.17,4.34-3.92,4.34
		c-3.641,0-5.391-7.7-5.6-8.331c-0.84-2.8-1.47-6.161-2.73-8.961l-10.921,3.081l-0.35-0.35v-1.12l10.921-3.22
		c-1.05-3.71-2.31-7.421-3.85-11.762v-0.49c0.14-0.21,0.49-0.35,0.84-0.35c0.77,0,3.22,8.821,4.621,12.251l11.831-3.081
		c0.28-0.07,0.63,0.35,0.91,0.35C77.429,141.058,73.019,141.617,68.679,143.298z"/>
	<path fill="#FFFFFF" stroke="#FFFFFF" stroke-miterlimit="10" d="M92.129,161.849c-10.151,0-10.431-18.062-10.431-21.912
		c0-0.28,0.07-2.17,0.35-3.36h1.26v5.811c0,1.89,1.05,18.411,8.541,18.411c6.23,0,6.581-8.4,6.581-11.831
		c0-4.69-1.19-8.261-1.61-13.301c0,0,0.28,0,0.42,0.14c1.89,3.851,2.66,8.751,2.66,12.671
		C99.9,151.979,99.27,161.849,92.129,161.849z"/>
	<path fill="#FFFFFF" stroke="#FFFFFF" stroke-miterlimit="10" d="M121.668,144.558c-5.11,0-7.351-5.67-10.081-9.871
		c-2.45,1.12-3.57,6.021-3.57,10.011l0.56,14.701c0,0.56-0.07,2.38-1.12,2.38c-0.84,0-1.331-3.08-1.47-3.36
		c-1.82-5.88-2.94-14.351-4.341-20.162c0.14,0,0.28-0.35,0.63-0.35c0.42,0,0.49,0.14,0.63,0.14l3.781,17.502v-12.531
		c0-0.63,0.77-9.661,4.48-9.661c1.96,0,2.94,3.01,3.78,4.761c1.75,3.22,4.34,6.371,8.19,6.23
		C122.858,144.488,122.019,144.558,121.668,144.558z"/>
	<path fill="#FFFFFF" stroke="#FFFFFF" stroke-miterlimit="10" d="M143.368,151.418c-3.431,4.201-8.121,9.801-12.531,9.801
		c-0.35,0-0.771,0-1.19,0c-5.67,0-7.281-6.72-7.281-9.941c0-7,5.601-20.722,16.172-20.722c3.64,0,3.92,4.13,3.92,5.671
		c0,11.061-7.421,19.182-16.872,21.072c1.19,1.331,3.15,2.87,4.621,2.87c5.741,0,10.361-7.42,14.842-12.461
		c0.14,0.14,0.21,0.07,0.21,0.49C145.258,148.478,143.718,150.999,143.368,151.418z M138.187,131.326c-1.05,0-3.78,0.7-5.741,2.311
		c-5.601,4.48-8.611,11.691-8.611,17.152c0,2.31,0.35,4.69,1.4,5.811c1.75-0.7,2.66-0.7,4.48-1.75c0.7-0.35,1.68-0.91,2.17-1.12
		c5.951-2.52,9.241-12.811,9.241-17.501C141.127,135.107,140.567,131.326,138.187,131.326z"/>
	<path fill="#FFFFFF" stroke="#FFFFFF" stroke-miterlimit="10" d="M185.366,157.299c-1.609,0-3.57-1.89-4.061-1.89
		c-0.209,0-4.76,5.6-9.45,5.6c-5.74,0-7.63-3.99-7.63-8.33c0-3.92,2.03-12.251,8.4-12.251c0.911,0,0.911,0.21,2.03,0.63
		c0.141-0.14,0.07-0.21,0.07-0.35l-1.12-5.321c0,0,0.07-0.14-0.28-0.14c-2.38,0-8.96,9.661-9.17,9.661c-0.35,0-0.49-0.21-0.771-0.35
		c0.84-1.75,1.891-3.36,3.15-4.9c0.14-0.21,5.74-6.021,7.421-6.021c0.279,0,0.77,0.28,0.91,0.63
		c1.119,4.551,2.24,14.632,6.65,19.182c1.05-0.7,2.52-3.01,3.99-4.271v0.56c0.07,0.84-2.94,4.2-3.221,4.55
		c0.771,1.26,2.73,2.24,4.131,2.521C186.276,156.949,185.786,157.299,185.366,157.299z M176.616,146.868
		c-0.631-1.4-0.771-5.531-3.921-5.531c-5.74,0-7.14,9.171-7.14,11.341c0,3.71,1.19,7.28,6.44,7.28c2.589,0,7-3.36,8.541-5.53
		C178.506,151.909,177.596,149.248,176.616,146.868z"/>
	<path fill="#FFFFFF" stroke="#FFFFFF" stroke-miterlimit="10" d="M202.235,144.558c-5.109,0-7.35-5.67-10.08-9.871
		c-2.45,1.12-3.57,6.021-3.57,10.011l0.561,14.701c0,0.56-0.07,2.38-1.121,2.38c-0.84,0-1.33-3.08-1.47-3.36
		c-1.82-5.88-2.94-14.351-4.341-20.162c0.141,0,0.28-0.35,0.631-0.35c0.42,0,0.49,0.14,0.629,0.14l3.781,17.502v-12.531
		c0-0.63,0.77-9.661,4.48-9.661c1.959,0,2.939,3.01,3.779,4.761c1.752,3.22,4.342,6.371,8.191,6.23
		C203.426,144.488,202.586,144.558,202.235,144.558z"/>
	<path fill="#FFFFFF" stroke="#FFFFFF" stroke-miterlimit="10" d="M206.504,143.298c0.559,2.38,1.398,5.04,2.17,7.63
		c0.209,0.63,1.82,9.101,5.109,9.101c1.891,0,3.15-4.06,3.852-4.69v0.49c0,0.35-0.35,0.56-0.42,0.91
		c-0.07,1.61-2.17,4.34-3.922,4.34c-3.639,0-5.391-7.7-5.6-8.331c-0.84-2.8-1.471-6.161-2.73-8.961l-10.922,3.081l-0.35-0.35v-1.12
		l10.922-3.22c-1.051-3.71-2.311-7.421-3.852-11.762v-0.49c0.141-0.21,0.49-0.35,0.842-0.35c0.77,0,3.219,8.821,4.619,12.251
		l11.832-3.081c0.279-0.07,0.629,0.35,0.91,0.35C215.254,141.058,210.844,141.617,206.504,143.298z"/>
</g>
<g>
	<path fill="#FFFFFF" d="M87.705,66.824c0,0-19.316-33.341-2.646-63.771c0,0-25.666,7.674-35.457,35.458
		C49.603,38.511,57.804,61.532,87.705,66.824z"/>
	<path fill="#FFFFFF" d="M85.93,48.345c0,0,18.822-33.629,53.494-34.818c0,0-19.696-18.158-48.586-12.399
		C90.838,1.128,75.225,19.932,85.93,48.345z"/>
	<path fill="#FFFFFF" d="M102.358,37.543c0,0,38.535-0.504,56.893,28.935c0,0,5.885-26.135-13.542-48.28
		C145.709,18.198,121.618,14.07,102.358,37.543z"/>
	<path fill="#FFFFFF" d="M119.093,46.666c0,0,19.034,33.508,2.11,63.79c0,0,25.729-7.455,35.752-35.156
		C156.955,75.299,148.943,52.208,119.093,46.666z"/>
	<path fill="#FFFFFF" d="M67.389,98.079c0,0,38.36-3.713,53.385-34.98c0,0,8.712,25.33-8.178,49.471
		C112.597,112.569,89.102,119.303,67.389,98.079z"/>
	<path fill="#FFFFFF" d="M47.287,45.665c0,0,22.263,31.454,56.868,28.982c0,0-17.669,20.13-47.008,17.453
		C57.146,92.1,39.638,75.047,47.287,45.665z"/>
</g>
</svg>
