<?xml version="1.0" encoding="utf-8"?>
<!-- Generator: Adobe Illustrator 15.0.2, SVG Export Plug-In . SVG Version: 6.00 Build 0)  -->
<!DOCTYPE svg PUBLIC "-//W3C//DTD SVG 1.1//EN" "http://www.w3.org/Graphics/SVG/1.1/DTD/svg11.dtd">
<svg version="1.1" id="Layer_1" xmlns="http://www.w3.org/2000/svg" xmlns:xlink="http://www.w3.org/1999/xlink" x="0px" y="0px"
	 width="251.251px" height="59.175px" viewBox="0 0 251.251 59.175" enable-background="new 0 0 251.251 59.175"
	 xml:space="preserve">
<g>
	<path fill="#FFFFFF" stroke="#FFFFFF" stroke-miterlimit="10" d="M17.792,33.263c-1.4,1.68-5.53,4.2-7.28,4.2
		c-0.42,0-2.871-0.84-2.661-2.38c0.7,0.49,2.311,1.68,2.59,1.68c1.05,0,3.15-1.4,3.92-2.029c4.48-3.291,6.441-9.101,6.441-13.231
		c0-1.26-0.07-1.96-0.7-3.15c-2.24-0.77-10.361,5.811-14.912,5.811c-2.17,0-4.69-0.21-4.69-3.081
		c0-5.32,10.571-13.792,14.912-13.792c2.1,0,2.24,1.4,1.68,3.71c0.56-0.49,1.47-1.61,1.82-2.38c0.42,0.14,0.98,0.42,0.98,0.77
		c0,0.91-6.791,7.561-7.911,9.101c-0.42,0.49-0.91,1.541-1.4,1.541c-0.35,0-0.84-0.49-1.19-0.98c0.14-0.21,6.51-7.981,6.51-9.801
		v-0.7c-0.14-0.14,0.07-0.07-0.28-0.07c-0.63,0-2.94,1.19-3.15,1.26C8.831,11.141,2.18,17.022,2.18,21.292
		c0,1.96,1.26,1.82,2.31,1.82c4.551,0,11.131-5.741,14.562-5.741c3.081,0,3.22,2.101,3.22,4.131
		C22.272,24.933,20.522,30.043,17.792,33.263z"/>
	<path fill="#FFFFFF" stroke="#FFFFFF" stroke-miterlimit="10" d="M45.372,24.933c-3.431,4.201-8.121,9.801-12.531,9.801
		c-0.35,0-0.771,0-1.19,0c-5.67,0-7.28-6.721-7.28-9.941c0-7,5.6-20.722,16.171-20.722c3.64,0,3.92,4.13,3.92,5.671
		c0,11.061-7.421,19.182-16.872,21.072c1.19,1.331,3.15,2.87,4.621,2.87c5.741,0,10.361-7.42,14.842-12.461
		c0.14,0.14,0.21,0.07,0.21,0.49C47.262,21.992,45.722,24.513,45.372,24.933z M40.191,4.84c-1.05,0-3.78,0.7-5.741,2.311
		c-5.601,4.48-8.61,11.691-8.61,17.152c0,2.31,0.35,4.69,1.4,5.811c1.75-0.7,2.66-0.7,4.48-1.75c0.7-0.35,1.68-0.91,2.17-1.12
		c5.951-2.52,9.241-12.811,9.241-17.501C43.132,8.621,42.572,4.84,40.191,4.84z"/>
	<path fill="#FFFFFF" stroke="#FFFFFF" stroke-miterlimit="10" d="M54.189,16.812c0.56,2.38,1.4,5.04,2.17,7.63
		c0.21,0.63,1.82,9.1,5.11,9.1c1.89,0,3.15-4.06,3.851-4.689v0.49c0,0.35-0.35,0.56-0.42,0.91c-0.07,1.609-2.17,4.34-3.92,4.34
		c-3.641,0-5.391-7.7-5.601-8.331c-0.84-2.8-1.47-6.161-2.73-8.961l-10.921,3.081l-0.35-0.35v-1.12l10.921-3.22
		c-1.05-3.71-2.31-7.421-3.85-11.762V3.44c0.14-0.21,0.49-0.35,0.84-0.35c0.77,0,3.22,8.821,4.621,12.251l11.831-3.081
		c0.28-0.07,0.63,0.35,0.91,0.35C62.94,14.572,58.53,15.131,54.189,16.812z"/>
	<path fill="#FFFFFF" stroke="#FFFFFF" stroke-miterlimit="10" d="M82.19,21.642c-0.63-2.1-4.831-15.611-7.771-15.611
		c-2.66,0-3.641,6.511-3.641,7.21c0,3.641,1.12,6.091,2.101,9.661c1.12,4.201,3.85,12.251,3.78,12.601v0.98
		c-0.14,0.14-0.07,0.14-0.42,0.14c-0.98,0-4.97-14.841-11.971-35.773c0.14-0.14,0.35-0.35,0.84-0.35c0.91,0,3.5,9.241,4.55,12.042
		c0.84-3.5,0.98-7.561,5.811-7.561c2.03,0,4.34,6.161,4.48,6.511c2.94,6.441,3.5,9.101,5.39,13.932
		c1.47,4.06,3.781,6.93,4.971,9.241C87.161,32.003,83.73,26.333,82.19,21.642z"/>
	<path fill="#FFFFFF" stroke="#FFFFFF" stroke-miterlimit="10" d="M127.27,24.933c-3.43,4.201-8.12,9.801-12.53,9.801
		c-0.35,0-0.77,0-1.19,0c-5.67,0-7.281-6.721-7.281-9.941c0-7,5.601-20.722,16.172-20.722c3.64,0,3.919,4.13,3.919,5.671
		c0,11.061-7.42,19.182-16.871,21.072c1.19,1.331,3.15,2.87,4.62,2.87c5.741,0,10.361-7.42,14.841-12.461
		c0.14,0.14,0.21,0.07,0.21,0.49C129.16,21.992,127.62,24.513,127.27,24.933z M122.09,4.84c-1.05,0-3.78,0.7-5.741,2.311
		c-5.601,4.48-8.611,11.691-8.611,17.152c0,2.31,0.35,4.69,1.4,5.811c1.75-0.7,2.66-0.7,4.48-1.75c0.7-0.35,1.68-0.91,2.17-1.12
		c5.951-2.52,9.241-12.811,9.241-17.501C125.03,8.621,124.47,4.84,122.09,4.84z"/>
	<path fill="#FFFFFF" stroke="#FFFFFF" stroke-miterlimit="10" d="M136.298,35.083l5.46,22.402v0.98l-0.699,0.139
		c-1.891-4.41-3.081-9.311-4.271-14.07c-0.699-2.66-1.33-6.021-2.1-9.102c-0.91-0.141-1.891-0.07-2.66-0.699
		c0.279,0,0.91-0.211,2.38-0.07c0.14-0.141,0.14-0.351,0.14-0.42l-4.9-21.772c0.28,0,0.631-0.14,0.98-0.14
		c0.77,0,0.77,1.26,1.12,1.89c0.351-1.75,4.13-7.421,7.071-7.421c7.211,0,9.311,5.951,9.311,10.991
		C148.129,26.333,142.528,31.513,136.298,35.083z M139.938,7.851c-4.48,0-7.211,6.721-7.49,9.801l3.711,16.241
		c7.42-4.27,10.5-10.221,10.5-16.101C146.658,14.501,145.539,7.851,139.938,7.851z"/>
	<path fill="#FFFFFF" stroke="#FFFFFF" stroke-miterlimit="10" d="M163.878,33.263c-1.399,1.68-5.53,4.2-7.28,4.2
		c-0.42,0-2.871-0.84-2.66-2.38c0.699,0.49,2.311,1.68,2.59,1.68c1.051,0,3.15-1.4,3.92-2.029c4.48-3.291,6.441-9.101,6.441-13.231
		c0-1.26-0.07-1.96-0.7-3.15c-2.24-0.77-10.361,5.811-14.911,5.811c-2.171,0-4.691-0.21-4.691-3.081
		c0-5.32,10.571-13.792,14.912-13.792c2.1,0,2.24,1.4,1.68,3.71c0.561-0.49,1.471-1.61,1.82-2.38c0.42,0.14,0.98,0.42,0.98,0.77
		c0,0.91-6.791,7.561-7.911,9.101c-0.42,0.49-0.91,1.541-1.399,1.541c-0.351,0-0.841-0.49-1.19-0.98
		c0.14-0.21,6.511-7.981,6.511-9.801v-0.7c-0.141-0.14,0.07-0.07-0.28-0.07c-0.63,0-2.94,1.19-3.15,1.26
		c-3.641,1.4-10.291,7.281-10.291,11.551c0,1.96,1.261,1.82,2.31,1.82c4.551,0,11.132-5.741,14.562-5.741
		c3.08,0,3.22,2.101,3.22,4.131C168.358,24.933,166.608,30.043,163.878,33.263z"/>
	<path fill="#FFFFFF" stroke="#FFFFFF" stroke-miterlimit="10" d="M174.027,16.812c0.56,2.38,1.4,5.04,2.17,7.63
		c0.21,0.63,1.82,9.1,5.11,9.1c1.89,0,3.15-4.06,3.851-4.689v0.49c0,0.35-0.35,0.56-0.42,0.91c-0.07,1.609-2.17,4.34-3.92,4.34
		c-3.641,0-5.391-7.7-5.602-8.331c-0.84-2.8-1.47-6.161-2.73-8.961l-10.92,3.081l-0.35-0.35v-1.12l10.92-3.22
		c-1.049-3.71-2.31-7.421-3.85-11.762V3.44c0.14-0.21,0.49-0.35,0.84-0.35c0.77,0,3.22,8.821,4.62,12.251l11.831-3.081
		c0.28-0.07,0.631,0.35,0.91,0.35C182.777,14.572,178.367,15.131,174.027,16.812z"/>
	<path fill="#FFFFFF" stroke="#FFFFFF" stroke-miterlimit="10" d="M208.398,24.933c-3.43,4.201-8.121,9.801-12.531,9.801
		c-0.35,0-0.77,0-1.19,0c-5.671,0-7.28-6.721-7.28-9.941c0-7,5.6-20.722,16.172-20.722c3.641,0,3.92,4.13,3.92,5.671
		c0,11.061-7.42,19.182-16.871,21.072c1.189,1.331,3.149,2.87,4.619,2.87c5.742,0,10.361-7.42,14.842-12.461
		c0.141,0.14,0.211,0.07,0.211,0.49C210.289,21.992,208.748,24.513,208.398,24.933z M203.219,4.84c-1.051,0-3.781,0.7-5.742,2.311
		c-5.6,4.48-8.61,11.691-8.61,17.152c0,2.31,0.351,4.69,1.4,5.811c1.75-0.7,2.66-0.7,4.48-1.75c0.7-0.35,1.681-0.91,2.171-1.12
		c5.949-2.52,9.24-12.811,9.24-17.501C206.158,8.621,205.598,4.84,203.219,4.84z"/>
	<path fill="#FFFFFF" stroke="#FFFFFF" stroke-miterlimit="10" d="M212.596,12.191c-0.77,1.19-0.561,3.5-1.471,5.18h-0.84
		l1.33-7.561c-0.279-1.05-3.92-2.87-5.6-3.43c0.068-0.28,0.49-0.98,0.91-0.98c0.35,0,3.15,1.47,4.76,2.521
		c1.609-3.01,0.209-6.791,1.471-6.791c0.84,0,0.84,0.49,0.84,1.05c0,0.35-0.91,5.811-0.91,6.161c0,0.56,7.701,4.971,10.5,6.721v0.49
		c-0.139,0.21-0.139,0.35-0.49,0.35c-0.908,0-8.961-5.251-9.869-5.741c-0.422,0.42-0.561,0.98-0.561,1.19
		c0.139,0.21-0.07,0.28,0.279,0.28c0.42,0,0-0.14,0.42-0.14c0.98,0,6.23,15.332,7.631,19.882c1.68,5.601,3.711,9.31,4.48,13.581
		C220.227,35.783,217.775,22.902,212.596,12.191z"/>
	<path fill="#FFFFFF" stroke="#FFFFFF" stroke-miterlimit="10" d="M249.627,33.263c-3.92,0-7.141-9.311-7.91-11.131
		c-1.82-4.13-3.01-7.981-5.531-11.621c-1.33,1.4-2.029,3.5-2.52,5.391c-0.35,1.05-2.17,8.681-2.17,10.641v5.531
		c0,1.26,0.07,3.5-0.561,4.76h-0.699c-3.641-8.681-6.162-19.532-7.912-22.122c0.281-0.49,0.701-0.7,0.98-0.7
		c1.33,0,3.01,7.841,6.791,17.643c0.209-0.141,0.07-0.351,0.07-4.971c0-0.28,2.311-17.642,6.301-17.642
		c1.609,0,4.41,7.771,5.18,9.311c3.01,6.09,4.061,12.391,8.82,14.421C250.256,33.052,249.906,33.263,249.627,33.263z"/>
</g>
</svg>
